<svg width="110px" height="124px" viewBox="0 0 110 124" version="1.1" xmlns="http://www.w3.org/2000/svg" xmlns:xlink="http://www.w3.org/1999/xlink">
    <defs></defs>
    <g id="Outline-View" stroke="none" stroke-width="1" fill="none" fill-rule="evenodd">
        <g id="Outline-View-Copy" transform="translate(-26.000000, -91.000000)" fill-rule="nonzero" fill="#83CD29">
            <g id="node" transform="translate(26.000000, 91.000000)">
                <path d="M105.3,27.6 L60.1,1.4 C57.3,-0.2 53.5,-0.2 50.7,1.4 L5.2,27.6 C2.3,29.3 0.3,32.5 0.3,35.9 L0.3,88.2 C0.3,91.6 2.3,94.8 5.3,96.5 L17.3,103.3 C23.1,106.1 24.6,106.1 27.3,106.1 C35.8,106.1 40.2,100.9 40.2,92 L40.2,40.3 C40.2,39.6 40.7,38.5 39.9,38.5 L34.2,38.5 C33.5,38.5 32,39.6 32,40.3 L32,91.9 C32,95.9 28.3,99.8 21.6,96.5 L9.2,89.3 C8.8,89.1 8.5,88.6 8.5,88.1 L8.5,35.8 C8.5,35.3 9,34.8 9.4,34.6 L54.8,8.5 C55.2,8.3 55.8,8.3 56.2,8.5 L101.1,34.6 C101.5,34.9 101.5,35.3 101.5,35.8 L101.5,88.1 C101.5,88.6 101.6,89.1 101.2,89.3 L56.1,115.4 C55.7,115.6 55.2,115.6 54.8,115.4 L43.2,108.5 C42.9,108.3 42.4,108.2 42.1,108.4 C38.9,110.2 38.3,110.5 35.3,111.5 C34.6,111.8 33.5,112.2 35.7,113.5 L50.8,122.4 C52.2,123.2 53.9,123.7 55.6,123.7 C57.3,123.7 58.9,123.3 60.4,122.4 L105.4,96.3 C108.3,94.6 109.8,91.4 109.8,88 L109.8,35.8 C109.7,32.4 108.2,29.3 105.3,27.6 Z M69.5,79.8 C57.5,79.8 54.9,76.5 54,70.5 C53.9,69.9 53.4,69.1 52.7,69.1 L46.8,69.1 C46.1,69.1 45.5,70 45.5,70.7 C45.5,78.3 49.7,87.6 69.5,87.6 C83.8,87.6 92.1,82 92.1,72.2 C92.1,62.4 85.5,59.8 71.6,58 C57.5,56.1 56.1,55.2 56.1,51.9 C56.1,49.2 57.3,45.6 67.7,45.6 C77,45.6 80.4,47.6 81.8,53.9 C81.9,54.5 82.5,54.9 83.1,54.9 L89,54.9 C89.4,54.9 89.7,54.8 90,54.5 C90.2,54.2 90.4,53.9 90.3,53.5 C89.4,42.7 82.2,37.7 67.7,37.7 C54.8,37.7 47.1,43.2 47.1,52.3 C47.1,62.2 54.8,65 67.2,66.2 C82,67.7 83.2,69.8 83.2,72.7 C83.1,77.7 79.1,79.8 69.5,79.8 Z" id="Shape"></path>
            </g>
        </g>
    </g>
</svg>
